<?xml version="1.0" encoding="utf-8"?>
<!-- Generator: Adobe Illustrator 21.1.0, SVG Export Plug-In . SVG Version: 6.00 Build 0)  -->
<svg version="1.1" id="Layer_1" xmlns="http://www.w3.org/2000/svg" xmlns:xlink="http://www.w3.org/1999/xlink" x="0px" y="0px"
	 viewBox="0 0 200 200" style="enable-background:new 0 0 200 200;" xml:space="preserve">
<g>
	<g>
		<path style="fill:#0071BC;" d="M50.8,195.5c-25.5,0-46.3-20.8-46.3-46.3V50.8c0-25.5,20.8-46.3,46.3-46.3h98.3
			c25.5,0,46.3,20.8,46.3,46.3v98.3c0,25.5-20.8,46.3-46.3,46.3H50.8z M65.6,36.3c-16.2,0-29.3,13.1-29.3,29.3v68.8
			c0,16.2,13.1,29.3,29.3,29.3h68.8c16.2,0,29.3-13.1,29.3-29.3V65.6c0-16.2-13.1-29.3-29.3-29.3H65.6z"/>
		<path style="fill:#0071BC;" d="M149.2,5C174.4,5,195,25.6,195,50.8v98.3c0,25.3-20.6,45.8-45.8,45.8H50.8
			C25.6,195,5,174.4,5,149.2V50.8C5,25.6,25.6,5,50.8,5H149.2 M65.6,164.2h68.8c16.4,0,29.8-13.4,29.8-29.8V65.6
			c0-16.4-13.4-29.8-29.8-29.8H65.6c-16.4,0-29.8,13.4-29.8,29.8v68.8C35.8,150.8,49.2,164.2,65.6,164.2 M149.2,4H50.8
			C25,4,4,25,4,50.8v98.3C4,175,25,196,50.8,196h98.3c25.8,0,46.8-21,46.8-46.8V50.8C196,25,175,4,149.2,4L149.2,4z M65.6,163.2
			c-15.9,0-28.8-13-28.8-28.8V65.6c0-15.9,13-28.8,28.8-28.8h68.8c15.9,0,28.8,13,28.8,28.8v68.8c0,15.9-13,28.8-28.8,28.8H65.6
			L65.6,163.2z"/>
	</g>
</g>
</svg>
