<?xml version="1.0" encoding="utf-8"?>
<!-- Generator: Adobe Illustrator 21.1.0, SVG Export Plug-In . SVG Version: 6.00 Build 0)  -->
<svg version="1.1" id="Layer_1" xmlns="http://www.w3.org/2000/svg" xmlns:xlink="http://www.w3.org/1999/xlink" x="0px" y="0px"
	 viewBox="0 0 578 473" style="enable-background:new 0 0 578 473;" xml:space="preserve">
<g>
	<g>
		<path style="fill:#0071BC;stroke:#0071BC;stroke-miterlimit:10;" d="M46,222.1c-7.2,7.8-14.4,15.4-24.1,20
			c-6.3,3-10.9-0.3-12.6-12.8c-2.2-16.8-0.5-34.3,0.8-51.3c1.6-20.7,3.9-41.7,5.5-62.3c1.2-16.2,2.5-32.8,0.9-49
			c-0.2-1.5-0.5-4-1.2-6.8c-0.7-2.8-1.3-4.6-1.6-5.7c-0.4-1.1-0.8-2.3-1.2-3.4c0.5-2,1.6-2.8,3.6-3.1c2-0.3,4.3,0.2,6.6,2.9
			c1.7,2.1,3,5.1,3.6,8.9c2.6,17.4,0.6,36-0.9,53.4c-2,23.4-4.9,47.2-6.6,70.5c-0.7,9.3-1.6,36.6,4,37c1.2,0.1,5.1-4.3,9.2-10
			c4.1-5.8,7.2-8.9,9.3-9.5c2-0.6,3.3,1.7,4.1,6.6C46,211.4,46.2,216.4,46,222.1z"/>
		<path style="fill:#0071BC;stroke:#0071BC;stroke-miterlimit:10;" d="M94.5,170.1c-0.4,17.8-0.6,36-1.3,53.8
			c-0.2,5.2-1.7,7.7-4.6,8.1c-4.4,0.5-6.5-3.3-6.1-13.5c-3.8,4.8-7.7,7.4-11.8,8.1c-3.9,0.7-7.6-0.8-11-4.8
			c-4-4.8-5.8-12.1-5.2-22.1c0.6-10.4,3.7-20.7,8.4-30c4.6-8.9,8.6-13.5,12.2-13.9s5.4-0.6,9-0.9c0.1-3.1,0.2-4.7,0.3-7.8
			c0.2-8.5,1.3-31.3-5.1-33.2c-3.4-1-8.3,8.2-9.2,24.4c-0.3,5.5-1.4,8.3-3.4,8.6c-1.2,0.2-2.3-1.4-3.4-4.7
			c-1.1-3.3-1.5-6.9-1.2-10.5c0.8-9.8,1.8-20.2,5.5-29.6c2.9-7.5,6.3-11.2,9.8-11.2C100,90.9,94.7,158,94.5,170.1z M83,182.5
			c0.1-4.2-0.9-6.3-3-6.1c-9.1,1-13.9,8.4-14.4,20.7c-0.3,6.6,1.6,9.4,5.7,8.7c2.5-0.4,4.9-2.7,7.3-6.7
			C81.2,194.6,82.8,189.1,83,182.5z"/>
		<path style="fill:#0071BC;stroke:#0071BC;stroke-miterlimit:10;" d="M139,89.7c-0.1,10-0.3,20.1-0.5,30.1
			c-0.2,10.5-0.4,21-0.1,31.5c0.8,24.8,1.2,49.8,4.6,74.4c1.4,9.8,1.2,14.5-1.2,17c-2.4,2.5-6.6,2.9-12.7,3.1
			c-4,0.1-8.8-0.1-14.4-1.1c-6.5-1.2-10.3-3.4-11.2-7.5c-0.3-1.4,0-2.7,0.7-3.9c0.8-1.2,1.7-1.8,2.8-1.9c0.7,0,2.7,1.6,6,4.2
			c3.3,2.7,6.9,3.6,10.5,3.5c4.6-0.2,7.1-1.8,7.9-6.4c0.5-3.1,0.3-8.6-0.6-18.4c-0.3-3.6-0.6-6.9-0.8-9.4c-2.4,3.8-5.3,5.7-8.6,5.8
			c-6,0.2-11.1-3.9-14.4-13.7c-4-12.1-4.3-25.1-4.2-37.6c0.2-25.8,1.6-52.6,1.8-78.9c2-2.4,3.5-3.6,4.7-3.5c1.3,0,3.4,2.2,6.1,6.8
			c-2.6,24.8-2.5,50.4-2.3,75c0.1,9.9-0.6,32.4,7.1,34.6c2.3,0.7,5.7-6.7,7.2-21.4c1.1-11.3,1.3-22.7,1.3-34.1
			c-0.2-12.8-0.5-25.6-0.8-38.3c0,0.2-0.2-3.2-0.6-9.8c2.7-3.8,4.7-5.6,6-5.5C135,84.2,136.8,86,139,89.7z"/>
		<path style="fill:#0071BC;stroke:#0071BC;stroke-miterlimit:10;" d="M164.1,212.1c0.3,3.2,0,5.9-1,8c-1,2.1-2.7,3.4-3.8,3.1
			c-10.4-2.7-10.3-36.4-10.9-47.1c-1.3-23.2-1.8-47-3.2-70.2c-1-17.3-1.7-35.2-5.8-52c-0.3-1.2-0.9-2.9-1.7-4.7
			c-0.9-1.8-1.5-2.8-1.9-3.4c1.4-1.1,2.7-1.4,4-1.4c1.4,0,3.1,0.3,4.9,1c1.8,0.7,3,1.8,3.7,3.5c0.3,0.8,0.5,1.9,0.6,3.3
			c0.2,2.2,0.3,3.7,0.3,3.9c1.5,13.2,2.9,26.5,4,39.6c1.6,18.8,2.6,37.8,3.7,56.6c1.2,17.9,2,36.2,6,53.8
			C163.6,208.6,163.9,210.6,164.1,212.1z"/>
		<path style="fill:#0071BC;stroke:#0071BC;stroke-miterlimit:10;" d="M208.5,170.1c2.2,17.4,4.5,35.1,6,52.5
			c0.4,5.2-0.9,7.5-4.1,7.5c-4.7,0-7.6-4.1-8.4-13.9c-3.6,4.2-7.6,6.1-12.1,6.1c-4.3,0-8.8-2.2-13.2-6.9c-5.2-5.5-8.2-12.9-8.9-22.4
			c-0.7-9.3,1.2-18.4,5.5-26.9c3.9-7.7,7.7-11.6,11.7-11.5c3.9,0,5.9,0.1,9.9,0.1c-0.3-3-0.5-4.5-0.8-7.5
			c-1.2-9.2-2.7-30.2-10.4-32.4c-4.2-1.2-8,7.1-6.7,22.5c0.4,5.2-0.4,7.8-2.5,7.8c-1.3,0-2.8-1.7-4.4-5c-1.6-3.3-2.6-6.7-2.8-10.2
			c-0.9-11.6-0.2-20.7,2-27.5c2.2-6.8,5.3-10,9.2-9.8C203.4,93.6,206.6,154.3,208.5,170.1z M197.7,181.4c-0.4-4.1-1.9-6.2-4.3-6.2
			c-10,0-14.4,6.2-13.2,17.8c0.6,6.3,3.2,9.4,7.7,9.4c2.8,0,5.2-1.9,7.2-5.4C197.4,192.9,198.4,187.7,197.7,181.4z"/>
		<path style="fill:#0071BC;stroke:#0071BC;stroke-miterlimit:10;" d="M197.6,52.8c-0.7-2.3-0.6-4.1,0.4-5.6
			c0.9-1.5,2.4-2.1,4.4-2.3c2.2-0.2,4.4,0.4,6.8,2.5c2.4,2,4.1,5.1,5.3,9.8c1.2,5.1,2,10.1,2.1,14.3c0.2,4.2-0.1,8.5-0.9,12.9
			c-0.8,4.5-1.8,8.7-3.2,12.2c-1.4,3.5-3.1,5.6-4.3,5.4c-1.1-0.1-2.3-1.5-3.2-3.5c-0.8-2-1.3-4.8-0.6-6.8c0.7-1.8,2.2-4.5,3.1-7.3
			c0.9-2.8,1.2-6.3,1.1-10.2c0-2.2-0.3-4.5-0.9-6.9c-0.6-2.4-1.7-4.2-3.3-5.5c-1.6-1.4-3-2.7-4.2-4
			C199.1,56.6,198.2,54.8,197.6,52.8z"/>
		<path style="fill:#0071BC;stroke:#0071BC;stroke-miterlimit:10;" d="M275.9,186.1c1.5,9.4,1.2,17.4-1,24.2
			c-2.4,7.4-7,10.9-12.9,11.7c-2.6,0.3-5.7-0.4-9.2-2.5c-11.3-6.9-17.4-13.6-18.2-18.9c-1.3-8.4,0.7-13.1,5.8-13.5
			c0.7-0.1,1.5,0,2.4,0.1c1.1,6,3.9,10.5,8.1,13.7c3.7,2.7,7,3.6,9.9,2.8c2.3-0.7,3.2-2.8,2.6-6.4c-0.1-0.6-0.3-1.4-0.6-2.6
			c-0.3-1.2-0.5-2.1-0.6-2.8c-0.1-0.7-1.9-2.1-5.4-4.1c-3.9-2.2-6.1-3.6-6.6-3.9c-12.2-13.8-19.2-32.4-21.2-50.3
			c-1.2-10.8-2.2-21.7-0.9-32.6c1.3-10.5,4-15.4,8.3-15.9c3.2-0.3,7.4,2,12.6,7.4c5.2,5.4,8.9,11.7,11.1,19c1.5,5.1,2.5,9.5,3.1,13
			c0.6,3.7,0.9,6.9,0.9,9.5c0,3.2,0,6.4,0,9.7c-1.1,3-2.5,4.6-4,4.8c-0.8,0.1-2.4-1-4.7-3.4c-2.3-2.4-3.6-4.6-3.9-6.4
			c-0.1-0.8-0.1-3.6,0.2-8.3c0.1-2.8,0.1-5.1-0.2-6.9c-1.9-12.4-4.7-17.9-8.5-17.5c-2.2,0.2-3.4,3.9-3.4,11.3c0,5.7,0.5,12,1.5,18.7
			c1.2,8.4,4.6,16.5,10.3,22.1c4.4,4.4,10,8.8,15.1,13.1C271.9,175.7,275.1,180.7,275.9,186.1z"/>
		<path style="fill:#0071BC;stroke:#0071BC;stroke-miterlimit:10;" d="M367.1,24.9c0.1,1.2-0.2,2.3-0.9,3.3c-1.2,1.8-1.9,2.9-2,3
			c-0.5,1.1-0.7,4-0.8,9.7c0.3,38.8,2.3,78.1,5.3,116.4c0.9,11.5,0.1,27.4,7.4,37.3c0.2,3,0.3,4.4,0.5,7.3c-0.6,4.4-1.8,6.5-3.7,6.6
			c-3.9,0.2-7.4-6.6-10.9-23.7c-2.8-13.3-4.6-26.9-5.8-40.4c-2.2-25.5-4.3-51.1-5.6-76.8c-0.8,23.9-0.9,48.2-1.4,71.9
			c-0.3,14.3-1.6,55.5-7.2,56.5c-4.5,0.8-12.9-19.8-16.1-30c-9.8-31.3-17-64.5-26.1-96.5c1.5,13.3,3.1,26.6,4.9,39.8
			c3,22.1,6,44.4,10.1,66.4c0.4,2.4,1.4,6.2,2.9,11.2c1.5,5,2.5,8.8,2.9,11.6c0.9,6.1-2.1,10.3-5.1,9.9
			c-10.1-1.2-13.6-38.3-15.4-49.7c-3.3-21.7-5.9-43.9-8.7-65.8c-2.2-16.9-4.1-33.9-7.3-50.6c-0.2-0.9-0.7-1.8-1.6-2.6
			c-0.9-0.8-1.5-1.6-1.6-2.4c-1.2-5.4,2.9-7.6,12.1-9.1c2.1-0.3,4.9,0,8.4,1.9c0.8,2.4,2.2,6.7,4.2,14.9c4.9,20,9.8,40,14.6,60
			c4,16.6,8.9,54.2,17.5,57.5c0.3,0.1,1.1-3.4,1.5-10c0.9-17.9,0.8-36,0.7-53.9c-0.1-15.9-0.3-31.9-0.2-47.8
			c0-6.3,0.1-15.5,1.2-22.5c0.9-5.3,5-7.1,11.5-7.6c2.3-0.2,5.2-0.1,8.6,0.5C364.7,22.1,366.9,23.3,367.1,24.9z"/>
		<path style="fill:#0071BC;stroke:#0071BC;stroke-miterlimit:10;" d="M429.8,151.3c-0.1,17.8-0.3,36.1-1.6,53.9
			c-0.4,5.3-2,7.7-4.7,7.6c-4.2-0.2-6.1-4.6-5.7-14.8c-3.8,4.2-7.6,6.1-11.7,6.1c-3.9-0.1-7.7-2.3-11.5-7c-4.5-5.6-7-13.2-7.6-22.7
			c-0.6-8.7,2.1-20,6.6-27.6c4.5-7.7,9-11.9,13.2-11.9c4.3,0,6.4,0.1,10.7,0.2c0-3.1,0-4.6,0-7.7c-0.2-7.6,0.6-31.6-8.4-33.1
			c-5.8-1-10.2,7.4-9.8,23c0.1,5.3-1,7.9-3.3,7.9c-1.4,0-3-1.6-4.7-4.9c-1.7-3.3-2.6-6.8-2.8-10.3c-0.5-8.6,0.3-20.1,4.1-28.2
			c3.3-7.1,7.6-10.5,12.7-10.4C434.7,71.7,429.9,134.2,429.8,151.3z M417.5,162.2c0-4.2-1.2-6.3-3.7-6.4c-10.2-0.3-15,6.2-14.7,18.1
			c0.2,6.5,2.5,9.5,6.8,9.6c2.7,0,5.1-1.9,7.4-5.5C415.9,173.9,417.5,168.7,417.5,162.2z"/>
		<path style="fill:#0071BC;stroke:#0071BC;stroke-miterlimit:10;" d="M468.2,93.7c-0.3,5.5-4.2,9.2-11.5,11
			c-0.8,10.7-1.3,21.4-1.8,32.1c-0.4,8.6-0.6,12.8-1,21.3c-0.2,4.2-0.3,10.5-0.2,18.5c0.1,8,0,13.6-0.1,17.2c-0.2,3-0.9,5.6-2.2,7.8
			c-1.3,2.2-2.6,3.1-3.8,3c-1.9-0.2-3.3-4-4.4-12.3c-0.8-6.4-1.1-12.8-0.9-19.1c0.7-22.6,1.4-45.1,2.2-67.7c-4-1.7-6.3-2.7-6.9-3.2
			c-2.2-1.8-3.3-4.2-3.3-7.3c0-0.8,0.1-1.7,0.3-2.7c2.4-7.4,5.1-10.9,8-10.7c0.2,0,0.6,0,0.8,0c0.3,0.1,0.6,0.3,0.8,0.3
			c1.9,0.1,3-4.8,3.2-13.8c0.3-8,0.4-11.8,0.6-18.6c-0.4-1.7-0.6-3.2-0.6-4.4c0.1-1.9,0.8-3.5,2.3-4.9s2.9-2,4.3-1.9
			c2,0.1,3.8,1.5,5.5,4.3s2.4,6,2.2,9.5c-0.2,3.8-0.7,7.8-1.6,11.9c-0.9,4.1-1.4,8.6-1.5,13.4c0,0.5,0,0.7-0.1,1.2
			C465.5,80.7,468.7,85.6,468.2,93.7z"/>
		<path style="fill:#0071BC;stroke:#0071BC;stroke-miterlimit:10;" d="M501.1,214.6c-1.9,3.1-3.9,4.3-6.3,4
			c-1.6-0.2-3.8-3.3-4.1-7.5c-0.7-11,2.9-26.6,4.3-39.9c1.6-15.2,6-71.3-0.9-72.2c-6.5-0.8-12.4,43.1-13.6,56.5
			c-0.2,2.1-0.4,5.3-0.8,9.3c-0.3,4-0.6,7-0.8,9.1c-0.3,3.1-0.5,7.8-0.6,13.9c-0.1,6.1-0.3,10.4-0.6,13.2c-0.2,2.4-1,4.5-2.3,6.2
			c-1.3,1.7-2.5,2.5-3.5,2.4c-1.9-0.2-3.4-2.2-4.4-6.1c-1.1-3.9-1.4-8.2-1.1-13.1c3.9-53.9,7.4-107.9,11.8-161.8
			c0-0.3,0.1-0.7,0.1-1.1s0.1-0.8,0.1-0.9c0.2-3.2,2.3-4,6.2-3.7c1.9,0.2,4,0.9,6.3,2.4c2.3,1.6,3.3,3.2,3.2,5
			c-0.2,2.2-1,5.6-2.5,11.3c-1.4,5.7-2.3,10.8-2.6,14.4c-0.4,4.6-1,12.1-1.8,23.9c2.2-2.3,4-3.3,5.4-3.2c3.5,0.4,7.3,2.6,11,6.7
			c4.8,5.4,7.6,14.1,8.1,26c0.6,12.6-0.9,25.2-2.3,37.8C506.6,169.7,503.9,192.1,501.1,214.6z"/>
		<path style="fill:#0071BC;stroke:#0071BC;stroke-miterlimit:10;" d="M550.3,188.9c-1.7,9.7-4.7,17.4-9,23.3
			c-4.6,6.4-9.9,8.5-15.3,7.6c-2.4-0.4-4.9-1.9-7.4-4.9c-8-9.6-11.8-17.5-11.1-23c1.1-8.7,4.2-13,9.2-12.2c0.7,0.1,1.5,0.4,2.2,0.7
			c-0.6,6.3,0.7,11.4,3.6,15.6c2.6,3.7,5.4,5.4,8.2,5.4c2.3,0,3.8-1.8,4.4-5.6c0.1-0.6,0.2-1.5,0.3-2.7c0.1-1.2,0.2-2.2,0.3-2.9
			c0.1-0.7-1.1-2.6-3.8-5.6c-2.9-3.3-4.7-5.2-5-5.7c-7.6-17-9.7-37.1-6.8-55.2c1.8-11.1,3.9-22.3,8.8-32.7
			c4.8-10.2,9.6-14.4,14.6-13.6c3.7,0.6,7.5,4.1,11.1,11c3.6,6.9,5.3,14.4,5,22.2c-0.2,5.5-0.7,10.1-1.3,13.8
			c-0.7,3.8-1.4,7-2.3,9.6c-1.1,3.1-2.1,6.3-3.2,9.5c-2.1,2.5-3.9,3.7-5.5,3.4c-0.8-0.1-2-1.8-3.5-4.8c-1.5-3.1-2.2-5.6-1.9-7.5
			c0.1-0.9,1.1-3.6,2.8-8.2c1-2.7,1.7-5,2-6.9c2-12.7,0.9-19.1-3.2-19.7c-2.5-0.4-4.9,2.9-7.3,10.2c-1.8,5.7-3.2,12-4.2,18.9
			c-1.2,8.6-0.2,17.5,3.7,24.6c3,5.6,7,11.6,10.5,17.5C550,177.3,551.3,183.3,550.3,188.9z"/>
		<path style="fill:#0071BC;stroke:#0071BC;stroke-miterlimit:10;" d="M152.8,262.6c0.2,1.8-0.2,3.6-1.1,5.2c-0.9,1.7-2.1,2.7-3.7,3
			c-0.9,0.1-2.5-0.2-4.9-0.9c-2.4-0.7-4.4-1-5.9-0.8c-4.1,0.5-7.4,0.9-9.9,1.2c-1.4,0.2-2.2,0.4-2.3,0.7c-0.1,0.3-0.2,1.6-0.4,3.8
			c-0.3,3.4-0.8,8.9-1.4,17.3c-2.1,31.6-2,63.8-2,95.6c0,16.1-0.8,33.6,3.4,49.4c-0.1,3.1-0.1,4.6-0.3,7.6c-1.9,2-3.4,3.1-4.4,3.2
			c-6.1,0.6-9.8-4.4-11.5-16.5c-1.4-12-1.2-24.1-1.2-36.1c-0.1-16.9,0-34,0.3-50.9c0.3-11.8,0.8-23.7,1.4-35.4
			c0.5-9.7,1-19.5,1-29.3c0-2.5,0-3.7,0-6c-1.3,0.2-3.9,0.8-7.7,1.8c-3.2,0.8-5.7,1.2-7.6,1.2c-6.3,0-9.4-3-9.4-7.7
			c0-2,0.5-3,1.5-3.3c1.4-2.3,8.7-3.9,21.9-5.6c10.2-1.3,18.4-2.4,24.6-3c4.4-0.4,8.3-0.5,11.7-0.1
			C149.8,257.4,152.5,259,152.8,262.6z"/>
		<path style="fill:#0071BC;stroke:#0071BC;stroke-miterlimit:10;" d="M209.7,442.9c-2.5,4-5.4,6.3-8.7,7.1c-2.2,0.5-5.5-2-6.1-5.4
			c-1.7-10.4,2.2-27.8,2.4-41.6c0.2-12.6-1.8-71.4-11.6-70.4c-9.6,1-9.1,46.8-9.2,61c0,2.2,0,5.4-0.1,9.6c-0.1,4.2-0.1,7.3-0.2,9.4
			c-0.1,3.2,0,8,0.3,14.2c0.2,6.2,0.2,10.6,0,13.5c-0.2,2.5-1.2,4.9-3,7.2c-1.8,2.3-3.4,3.6-4.7,3.8c-2.6,0.5-4.6-0.9-6.2-4.4
			c-1.5-3.5-2.2-7.8-1.9-12.9c2.2-53.9,2.9-109.7-3.7-163.4c0-0.3-0.1-0.6-0.1-1c-0.1-0.4-0.1-0.7-0.1-0.8c-0.4-2.8,1.2-3.8,4.8-4.5
			c1.7-0.3,3.9-0.3,6.5,0.4s4.1,1.7,4.4,3.3c0.4,1.9,0.5,5.1,0.2,10.7c-0.2,5.6-0.2,10.7,0.1,14.2c0.4,4.4,1.1,11.8,2.1,23.5
			c2.1-3,3.9-4.6,5.4-5c4-0.9,8.5-0.2,13.5,2.3c6.4,3.2,11.6,10.3,14.6,21.4c3.3,12.1,3.7,24.8,4.2,37.4
			C212.7,396.2,212.5,419.6,209.7,442.9z"/>
		<path style="fill:#0071BC;stroke:#0071BC;stroke-miterlimit:10;" d="M240,298.6c0.4,3.5,0.6,8.8,0.4,15.9
			c-0.2,7.1-0.2,12.8,0,16.7c1.3,22.7,1.7,45.3,0.8,68.1c-0.2,4,0.1,10.2,0.6,17.9c-2.1,5-4.2,7.6-6.2,8.1c-7,1.8-9.9-3-9.8-15.8
			c0.2-19-0.3-38.2-1-57.2c-0.6-17.6-1.6-35.3-2.4-52.9c-0.1-1-0.2-1.9-0.3-2.9c-0.4-3.4,0.8-5.4,3.7-6.2c2.6-0.7,5.3-0.4,8.1,0.6
			C237.2,292,239.5,294.5,240,298.6z M235.2,262.4c0.7,3.1,0.6,6-0.5,8.7c-1.1,2.6-2.8,4.4-5,5c-2.6,0.8-5.3-0.1-8.1-2.2
			c-2.8-2.2-4.5-5.2-5.2-8.7c-0.6-3-0.4-5.4,0.7-7.4c1.1-2,2.7-3.3,4.9-3.9c2.6-0.7,5.2-0.5,7.8,0.9
			C232.5,256.2,234.3,258.6,235.2,262.4z"/>
		<path style="fill:#0071BC;stroke:#0071BC;stroke-miterlimit:10;" d="M313.3,381.7c-2.2,5-4.6,7.6-7,8.2c-1.9,0.4-4.6-0.7-8.4-3.6
			c0.2-1.4,0.3-2.1,0.4-3.6c0.5-4.4,1.2-11.1,1.8-20.4c0.5-9.3,0.7-16.5,0.6-20.9c-0.2-12.3-2.2-68.2-15.8-67.8
			c-1.5,0-3.6,4-5.3,10.7c-6.1,23.5-7.4,47.9-7.9,72c-0.1,3.7,0.2,9.2,0.5,16.1c0.3,6.9,0.2,12-0.1,15.4c-0.3,2.8-1.3,5.2-2.9,7.3
			c-1.7,2.1-3.3,3.3-5,3.8c-6.6,1.7-8.7-4.3-7.8-20.3c1-23.1,0.7-46-0.7-69.1c-0.1-1.8-0.2-4.4-0.3-7.8c-0.1-3.4-0.2-5.9-0.4-7.6
			c-0.2-2.5-0.8-6.2-1.7-10.8c-0.9-4.6-1.5-7.9-1.8-10c-0.4-3.1,0.1-6.3,1.6-9.5c1.5-3.2,3-5,4.5-5.5c2.3-0.7,5,0.8,8.2,4.8
			c0.6,4.6,0.8,6.9,1.3,11.8c2.2-13,5.8-19.5,11.4-21.2c3.6-1.1,7.9-0.2,12.8,3.1c5,3.3,8.9,7.7,11.8,13.3
			c9.7,19.9,11.5,42.9,12.5,64.7C316,350.4,315.3,366.1,313.3,381.7z"/>
		<path style="fill:#0071BC;stroke:#0071BC;stroke-miterlimit:10;" d="M378.7,263.8c1.2,10.3,1.7,20.8,1.6,31.2
			c0,10.5-0.4,21.1-0.4,31.5c-0.1,10.2-0.5,20.5-1.3,30.5c-1,12.9-3.1,21.8-4.6,27.5c-3.2,11.7-7.3,18.9-10.8,23.3
			c-4.4,5.5-9.9,9.5-16,12.3c-6.1,2.9-11.3,4.3-15.4,4.8c-4.3,0.6-8.5,0.4-12.9-0.8c-5.4-1.4-7.2-4-4.9-8.6
			c2.9-5.9,6.2-10.1,10.5-11c2-0.4,3.1,0.2,3.2,1.8c0.2,2.8,0.3,4.3,0.5,4.8c0.2,0.5,1.6,0.8,4.1,1.1c2.5,0.2,4.3,0.3,5.4,0.1
			c13.7-2.6,21.2-17.6,24-30.3c1.4-6.3,2.2-12,2.6-16.8c-5.6,8.6-11.8,13.1-18.2,14.4c-2.7,0.5-5.4-0.2-8.3-2.3
			c-2.9-2.1-5-4.8-6.3-8.4c-3.6-10.7-3.3-22.8-3.2-33.8c0.1-21.6,0.7-43.5,1.5-65.1c0.4-10.4-1.7-38.2,10-42.7
			c3.8-1.5,10,0.8,15.3,7.2c4.8,5.8,9.3,13.2,13.7,20.2c1.2,2,2.9,3.6,5,4.9C376.3,261.4,377.9,262.8,378.7,263.8z M365.6,288.4
			c-0.3-3.5-1.4-6.2-3.2-8.1c-1.7-8.5-9.4-30.1-14.9-27.6c-5.2,2.3-4,23-4,32.9c0,14.3-0.2,28.8,0,43.1c0.1,8.3,1,31.6,6.9,30.9
			c6.7-0.8,11.5-18.5,13.5-28.7C366.7,317.2,367,302.5,365.6,288.4z"/>
		<path style="fill:#0071BC;stroke:#0071BC;stroke-miterlimit:10;" d="M441.2,227.5c2,11.6,3.8,23.1,4.9,34.7
			c1.2,12.2,1.8,24.8,2.5,37.2c1.1,32.3-0.2,65.1-11.5,95.8c-4.1,11.2-11.4,21.5-21.8,27.5c-8.2,4.7-15.8,5.9-22.3,5.5
			c-4.2-0.2-7.3-1.5-10-4.1c-3.2-3.1-3.3-7.1,0-13.3c1.1-2.1,2.6-4,4.4-5.7c1.8-1.7,3.4-2.6,4.8-2.7c0.9-0.1,2.1,2.1,3.2,6.2
			c1.1,4.1,3.4,5.8,7.5,5.8c5.2,0,10.7-2.7,15.9-9.7c5.7-7.7,8.7-17.2,11.1-26.1c1.3-4.7,2-9.1,2.5-12.4c-4.1,5.1-8.2,7.5-12.2,7.8
			c-7.4,0.5-12-4.5-14.7-16c-3.3-13.9-3.8-28.7-4.3-42.9c-0.9-28.7-4.6-57.5-11.7-85.6c2.2-3.3,4.2-5.2,6-5.7
			c2-0.5,5.7,0.9,10.9,4.8c3.1,28,8,55.6,9.2,83.6c0.4,8.8,1.6,40.5,7.6,40.1c5.6-0.5,9.8-17.6,11.4-26.8c2.2-13,2.1-27,0.8-40.5
			c-1.7-14.6-4-28.9-7.1-43.4c0.1,0.2-0.9-3.5-3.2-10.7c2.9-5.1,5.2-7.8,7.1-8.2C434.2,222.5,437.2,223.9,441.2,227.5z"/>
		<path style="fill:#0071BC;stroke:#0071BC;stroke-miterlimit:10;" d="M502.7,402.5c-2,7.7-9.4,24.9-22.7,23.7
			c-1.6-0.1-3.8-2.6-7-7.1c0.6-4.8,1.5-9.4,2.9-13.8c4-12.9,9-19.7,16.7-19.2c2.8,0.2,5.4,1.6,7.7,4.2
			C503.2,393.7,503.9,397.9,502.7,402.5z M486,232.8c0.7,0.6,1.1,1.2,1.4,2c0.4,1.1,0.6,1.8,0.7,2.1c5,10,8.5,20.7,11.3,31.3
			c4,15,5.6,30.7,6.9,46.4c0.1,1.1,0.2,3.4,0.2,6.7c0,3.3,0,6,0.1,7.8c0.3,6.1,0.9,14.3,1.5,24.7c-0.6,1.9-1.6,4.5-3.1,7.7
			c-1,0.6-2.1,0.9-3.3,0.8c-1.8-0.1-3.4-1.4-4.8-3.8c-1.2-8.3-1.6-17-1.8-25.3c-0.4-14.9-0.8-30.3-2.5-44.8
			c-1.5-12-3.5-24.6-9.1-35.8c-1.3-2.5-3.6-6.2-7.1-10.1c-3.6-3.9-6.3-6-7.9-7.2c-0.9-0.7-1.6-1.3-2.1-1.7c0.2-1.6,1.8-2.5,5-3.1
			c1.8-0.3,4.2-0.5,7-0.2C481.6,230.4,484.2,231.3,486,232.8z"/>
	</g>
</g>
</svg>
