<?xml version="1.0" encoding="utf-8"?>
<!-- Generator: Adobe Illustrator 21.1.0, SVG Export Plug-In . SVG Version: 6.00 Build 0)  -->
<svg version="1.1" id="Layer_1" xmlns="http://www.w3.org/2000/svg" xmlns:xlink="http://www.w3.org/1999/xlink" x="0px" y="0px"
	 viewBox="0 0 1000 500" style="enable-background:new 0 0 1000 500;" xml:space="preserve">
<style type="text/css">
	.st0{fill:#0071BC;stroke:#0071BC;stroke-miterlimit:10;}
</style>
<g>
	<g>
		<path class="st0" d="M49,340.1c-7.2,7.8-14.4,15.4-24.1,20c-6.3,3-10.9-0.3-12.6-12.8c-2.2-16.8-0.5-34.3,0.8-51.3
			c1.6-20.7,3.9-41.7,5.5-62.3c1.2-16.2,2.5-32.8,0.9-49c-0.2-1.5-0.5-4-1.2-6.8c-0.7-2.8-1.3-4.6-1.6-5.7c-0.4-1.1-0.8-2.3-1.2-3.4
			c0.5-2,1.6-2.8,3.6-3.1c2-0.3,4.3,0.2,6.6,2.9c1.7,2.1,3,5.1,3.6,8.9c2.6,17.4,0.6,36-0.9,53.4c-2,23.4-4.9,47.2-6.6,70.5
			c-0.7,9.3-1.6,36.6,4,37c1.2,0.1,5.1-4.3,9.2-10c4.1-5.8,7.2-8.9,9.3-9.5c2-0.6,3.3,1.7,4.1,6.6C49,329.4,49.2,334.4,49,340.1z"/>
		<path class="st0" d="M97.5,288.1c-0.4,17.8-0.6,36-1.3,53.8c-0.2,5.2-1.7,7.7-4.6,8.1c-4.4,0.5-6.5-3.3-6.1-13.5
			c-3.8,4.8-7.7,7.4-11.8,8.1c-3.9,0.7-7.6-0.8-11-4.8c-4-4.8-5.8-12.1-5.2-22.1c0.6-10.4,3.7-20.7,8.4-30
			c4.6-8.9,8.6-13.5,12.2-13.9s5.4-0.6,9-0.9c0.1-3.1,0.2-4.7,0.3-7.8c0.2-8.5,1.3-31.3-5.1-33.2c-3.4-1-8.3,8.2-9.2,24.4
			c-0.3,5.5-1.4,8.3-3.4,8.6c-1.2,0.2-2.3-1.4-3.4-4.7c-1.1-3.3-1.5-6.9-1.2-10.5c0.8-9.8,1.8-20.2,5.5-29.6
			c2.9-7.5,6.3-11.2,9.8-11.2C103,208.9,97.7,276,97.5,288.1z M86,300.5c0.1-4.2-0.9-6.3-3-6.1c-9.1,1-13.9,8.4-14.4,20.7
			c-0.3,6.6,1.6,9.4,5.7,8.7c2.5-0.4,4.9-2.7,7.3-6.7C84.2,312.6,85.8,307.1,86,300.5z"/>
		<path class="st0" d="M142,220.7c-0.1,10-0.3,20.1-0.5,30.1c-0.2,10.5-0.4,21-0.1,31.5c0.8,24.8,1.2,49.8,4.6,74.4
			c1.4,9.8,1.2,14.5-1.2,17c-2.4,2.5-6.6,2.9-12.7,3.1c-4,0.1-8.8-0.1-14.4-1.1c-6.5-1.2-10.3-3.4-11.2-7.5c-0.3-1.4,0-2.7,0.7-3.9
			c0.8-1.2,1.7-1.8,2.8-1.9c0.7,0,2.7,1.6,6,4.2c3.3,2.7,6.9,3.6,10.5,3.5c4.6-0.2,7.1-1.8,7.9-6.4c0.5-3.1,0.3-8.6-0.6-18.4
			c-0.3-3.6-0.6-6.9-0.8-9.4c-2.4,3.8-5.3,5.7-8.6,5.8c-6,0.2-11.1-3.9-14.4-13.7c-4-12.1-4.3-25.1-4.2-37.6
			c0.2-25.8,1.6-52.6,1.8-78.9c2-2.4,3.5-3.6,4.7-3.5c1.3,0,3.4,2.2,6.1,6.8c-2.6,24.8-2.5,50.4-2.3,75c0.1,9.9-0.6,32.4,7.1,34.6
			c2.3,0.7,5.7-6.7,7.2-21.4c1.1-11.3,1.3-22.7,1.3-34.1c-0.2-12.8-0.5-25.6-0.8-38.3c0,0.2-0.2-3.2-0.6-9.8c2.7-3.8,4.7-5.6,6-5.5
			C138,215.2,139.8,217,142,220.7z"/>
		<path class="st0" d="M167.1,330.1c0.3,3.2,0,5.9-1,8c-1,2.1-2.7,3.4-3.8,3.1c-10.4-2.7-10.3-36.4-10.9-47.1
			c-1.3-23.2-1.8-47-3.2-70.2c-1-17.3-1.7-35.2-5.8-52c-0.3-1.2-0.9-2.9-1.7-4.7c-0.9-1.8-1.5-2.8-1.9-3.4c1.4-1.1,2.7-1.4,4-1.4
			c1.4,0,3.1,0.3,4.9,1c1.8,0.7,3,1.8,3.7,3.5c0.3,0.8,0.5,1.9,0.6,3.3c0.2,2.2,0.3,3.7,0.3,3.9c1.5,13.2,2.9,26.5,4,39.6
			c1.6,18.8,2.6,37.8,3.7,56.6c1.2,17.9,2,36.2,6,53.8C166.6,326.6,166.9,328.6,167.1,330.1z"/>
		<path class="st0" d="M211.5,288.1c2.2,17.4,4.5,35.1,6,52.5c0.4,5.2-0.9,7.5-4.1,7.5c-4.7,0-7.6-4.1-8.4-13.9
			c-3.6,4.2-7.6,6.1-12.1,6.1c-4.3,0-8.8-2.2-13.2-6.9c-5.2-5.5-8.2-12.9-8.9-22.4c-0.7-9.3,1.2-18.4,5.5-26.9
			c3.9-7.7,7.7-11.6,11.7-11.5c3.9,0,5.9,0.1,9.9,0.1c-0.3-3-0.5-4.5-0.8-7.5c-1.2-9.2-2.7-30.2-10.4-32.4c-4.2-1.2-8,7.1-6.7,22.5
			c0.4,5.2-0.4,7.8-2.5,7.8c-1.3,0-2.8-1.7-4.4-5c-1.6-3.3-2.6-6.7-2.8-10.2c-0.9-11.6-0.2-20.7,2-27.5c2.2-6.8,5.3-10,9.2-9.8
			C206.4,211.6,209.6,272.3,211.5,288.1z M200.7,299.4c-0.4-4.1-1.9-6.2-4.3-6.2c-10,0-14.4,6.2-13.2,17.8c0.6,6.3,3.2,9.4,7.7,9.4
			c2.8,0,5.2-1.9,7.2-5.4C200.4,310.9,201.4,305.7,200.7,299.4z"/>
		<path class="st0" d="M200.6,170.8c-0.7-2.3-0.6-4.1,0.4-5.6c0.9-1.5,2.4-2.1,4.4-2.3c2.2-0.2,4.4,0.4,6.8,2.5
			c2.4,2,4.1,5.1,5.3,9.8c1.2,5.1,2,10.1,2.1,14.3c0.2,4.2-0.1,8.5-0.9,12.9c-0.8,4.5-1.8,8.7-3.2,12.2c-1.4,3.5-3.1,5.6-4.3,5.4
			c-1.1-0.1-2.3-1.5-3.2-3.5c-0.8-2-1.3-4.8-0.6-6.8c0.7-1.8,2.2-4.5,3.1-7.3c0.9-2.8,1.2-6.3,1.1-10.2c0-2.2-0.3-4.5-0.9-6.9
			c-0.6-2.4-1.7-4.2-3.3-5.5c-1.6-1.4-3-2.7-4.2-4C202.1,174.6,201.2,172.8,200.6,170.8z"/>
		<path class="st0" d="M278.9,304.1c1.5,9.4,1.2,17.4-1,24.2c-2.4,7.4-7,10.9-12.9,11.7c-2.6,0.3-5.7-0.4-9.2-2.5
			c-11.3-6.9-17.4-13.6-18.2-18.9c-1.3-8.4,0.7-13.1,5.8-13.5c0.7-0.1,1.5,0,2.4,0.1c1.1,6,3.9,10.5,8.1,13.7c3.7,2.7,7,3.6,9.9,2.8
			c2.3-0.7,3.2-2.8,2.6-6.4c-0.1-0.6-0.3-1.4-0.6-2.6c-0.3-1.2-0.5-2.1-0.6-2.8c-0.1-0.7-1.9-2.1-5.4-4.1c-3.9-2.2-6.1-3.6-6.6-3.9
			c-12.2-13.8-19.2-32.4-21.2-50.3c-1.2-10.8-2.2-21.7-0.9-32.6c1.3-10.5,4-15.4,8.3-15.9c3.2-0.3,7.4,2,12.6,7.4
			c5.2,5.4,8.9,11.7,11.1,19c1.5,5.1,2.5,9.5,3.1,13c0.6,3.7,0.9,6.9,0.9,9.5c0,3.2,0,6.4,0,9.7c-1.1,3-2.5,4.6-4,4.8
			c-0.8,0.1-2.4-1-4.7-3.4c-2.3-2.4-3.6-4.6-3.9-6.4c-0.1-0.8-0.1-3.6,0.2-8.3c0.1-2.8,0.1-5.1-0.2-6.9c-1.9-12.4-4.7-17.9-8.5-17.5
			c-2.2,0.2-3.4,3.9-3.4,11.3c0,5.7,0.5,12,1.5,18.7c1.2,8.4,4.6,16.5,10.3,22.1c4.4,4.4,10,8.8,15.1,13.1
			C274.9,293.7,278.1,298.7,278.9,304.1z"/>
		<path class="st0" d="M370.1,142.9c0.1,1.2-0.2,2.3-0.9,3.3c-1.2,1.8-1.9,2.9-2,3c-0.5,1.1-0.7,4-0.8,9.7
			c0.3,38.8,2.3,78.1,5.3,116.4c0.9,11.5,0.1,27.4,7.4,37.3c0.2,3,0.3,4.4,0.5,7.3c-0.6,4.4-1.8,6.5-3.7,6.6
			c-3.9,0.2-7.4-6.6-10.9-23.7c-2.8-13.3-4.6-26.9-5.8-40.4c-2.2-25.5-4.3-51.1-5.6-76.8c-0.8,23.9-0.9,48.2-1.4,71.9
			c-0.3,14.3-1.6,55.5-7.2,56.5c-4.5,0.8-12.9-19.8-16.1-30c-9.8-31.3-17-64.5-26.1-96.5c1.5,13.3,3.1,26.6,4.9,39.8
			c3,22.1,6,44.4,10.1,66.4c0.4,2.4,1.4,6.2,2.9,11.2c1.5,5,2.5,8.8,2.9,11.6c0.9,6.1-2.1,10.3-5.1,9.9
			c-10.1-1.2-13.6-38.3-15.4-49.7c-3.3-21.7-5.9-43.9-8.7-65.8c-2.2-16.9-4.1-33.9-7.3-50.6c-0.2-0.9-0.7-1.8-1.6-2.6
			c-0.9-0.8-1.5-1.6-1.6-2.4c-1.2-5.4,2.9-7.6,12.1-9.1c2.1-0.3,4.9,0,8.4,1.9c0.8,2.4,2.2,6.7,4.2,14.9c4.9,20,9.8,40,14.6,60
			c4,16.6,8.9,54.2,17.5,57.5c0.3,0.1,1.1-3.4,1.5-10c0.9-17.9,0.8-36,0.7-53.9c-0.1-15.9-0.3-31.9-0.2-47.8
			c0-6.3,0.1-15.5,1.2-22.5c0.9-5.3,5-7.1,11.5-7.6c2.3-0.2,5.2-0.1,8.6,0.5C367.7,140.1,369.9,141.3,370.1,142.9z"/>
		<path class="st0" d="M432.8,269.3c-0.1,17.8-0.3,36.1-1.6,53.9c-0.4,5.3-2,7.7-4.7,7.6c-4.2-0.2-6.1-4.6-5.7-14.8
			c-3.8,4.2-7.6,6.1-11.7,6.1c-3.9-0.1-7.7-2.3-11.5-7c-4.5-5.6-7-13.2-7.6-22.7c-0.6-8.7,2.1-20,6.6-27.6c4.5-7.7,9-11.9,13.2-11.9
			c4.3,0,6.4,0.1,10.7,0.2c0-3.1,0-4.6,0-7.7c-0.2-7.6,0.6-31.6-8.4-33.1c-5.8-1-10.2,7.4-9.8,23c0.1,5.3-1,7.9-3.3,7.9
			c-1.4,0-3-1.6-4.7-4.9c-1.7-3.3-2.6-6.8-2.8-10.3c-0.5-8.6,0.3-20.1,4.1-28.2c3.3-7.1,7.6-10.5,12.7-10.4
			C437.7,189.7,432.9,252.2,432.8,269.3z M420.5,280.2c0-4.2-1.2-6.3-3.7-6.4c-10.2-0.3-15,6.2-14.7,18.1c0.2,6.5,2.5,9.5,6.8,9.6
			c2.7,0,5.1-1.9,7.4-5.5C418.9,291.9,420.5,286.7,420.5,280.2z"/>
		<path class="st0" d="M471.2,211.7c-0.3,5.5-4.2,9.2-11.5,11c-0.8,10.7-1.3,21.4-1.8,32.1c-0.4,8.6-0.6,12.8-1,21.3
			c-0.2,4.2-0.3,10.5-0.2,18.5c0.1,8,0,13.6-0.1,17.2c-0.2,3-0.9,5.6-2.2,7.8c-1.3,2.2-2.6,3.1-3.8,3c-1.9-0.2-3.3-4-4.4-12.3
			c-0.8-6.4-1.1-12.8-0.9-19.1c0.7-22.6,1.4-45.1,2.2-67.7c-4-1.7-6.3-2.7-6.9-3.2c-2.2-1.8-3.3-4.2-3.3-7.3c0-0.8,0.1-1.7,0.3-2.7
			c2.4-7.4,5.1-10.9,8-10.7c0.2,0,0.6,0,0.8,0c0.3,0.1,0.6,0.3,0.8,0.3c1.9,0.1,3-4.8,3.2-13.8c0.3-8,0.4-11.8,0.6-18.6
			c-0.4-1.7-0.6-3.2-0.6-4.4c0.1-1.9,0.8-3.5,2.3-4.9s2.9-2,4.3-1.9c2,0.1,3.8,1.5,5.5,4.3s2.4,6,2.2,9.5c-0.2,3.8-0.7,7.8-1.6,11.9
			c-0.9,4.1-1.4,8.6-1.5,13.4c0,0.5,0,0.7-0.1,1.2C468.5,198.7,471.7,203.6,471.2,211.7z"/>
		<path class="st0" d="M504.1,332.6c-1.9,3.1-3.9,4.3-6.3,4c-1.6-0.2-3.8-3.3-4.1-7.5c-0.7-11,2.9-26.6,4.3-39.9
			c1.6-15.2,6-71.3-0.9-72.2c-6.5-0.8-12.4,43.1-13.6,56.5c-0.2,2.1-0.4,5.3-0.8,9.3c-0.3,4-0.6,7-0.8,9.1
			c-0.3,3.1-0.5,7.8-0.6,13.9c-0.1,6.1-0.3,10.4-0.6,13.2c-0.2,2.4-1,4.5-2.3,6.2c-1.3,1.7-2.5,2.5-3.5,2.4
			c-1.9-0.2-3.4-2.2-4.4-6.1c-1.1-3.9-1.4-8.2-1.1-13.1c3.9-53.9,7.4-107.9,11.8-161.8c0-0.3,0.1-0.7,0.1-1.1s0.1-0.8,0.1-0.9
			c0.2-3.2,2.3-4,6.2-3.7c1.9,0.2,4,0.9,6.3,2.4c2.3,1.6,3.3,3.2,3.2,5c-0.2,2.2-1,5.6-2.5,11.3c-1.4,5.7-2.3,10.8-2.6,14.4
			c-0.4,4.6-1,12.1-1.8,23.9c2.2-2.3,4-3.3,5.4-3.2c3.5,0.4,7.3,2.6,11,6.7c4.8,5.4,7.6,14.1,8.1,26c0.6,12.6-0.9,25.2-2.3,37.8
			C509.6,287.7,506.9,310.1,504.1,332.6z"/>
		<path class="st0" d="M553.3,306.9c-1.7,9.7-4.7,17.4-9,23.3c-4.6,6.4-9.9,8.5-15.3,7.6c-2.4-0.4-4.9-1.9-7.4-4.9
			c-8-9.6-11.8-17.5-11.1-23c1.1-8.7,4.2-13,9.2-12.2c0.7,0.1,1.5,0.4,2.2,0.7c-0.6,6.3,0.7,11.4,3.6,15.6c2.6,3.7,5.4,5.4,8.2,5.4
			c2.3,0,3.8-1.8,4.4-5.6c0.1-0.6,0.2-1.5,0.3-2.7c0.1-1.2,0.2-2.2,0.3-2.9c0.1-0.7-1.1-2.6-3.8-5.6c-2.9-3.3-4.7-5.2-5-5.7
			c-7.6-17-9.7-37.1-6.8-55.2c1.8-11.1,3.9-22.3,8.8-32.7c4.8-10.2,9.6-14.4,14.6-13.6c3.7,0.6,7.5,4.1,11.1,11
			c3.6,6.9,5.3,14.4,5,22.2c-0.2,5.5-0.7,10.1-1.3,13.8c-0.7,3.8-1.4,7-2.3,9.6c-1.1,3.1-2.1,6.3-3.2,9.5c-2.1,2.5-3.9,3.7-5.5,3.4
			c-0.8-0.1-2-1.8-3.5-4.8c-1.5-3.1-2.2-5.6-1.9-7.5c0.1-0.9,1.1-3.6,2.8-8.2c1-2.7,1.7-5,2-6.9c2-12.7,0.9-19.1-3.2-19.7
			c-2.5-0.4-4.9,2.9-7.3,10.2c-1.8,5.7-3.2,12-4.2,18.9c-1.2,8.6-0.2,17.5,3.7,24.6c3,5.6,7,11.6,10.5,17.5
			C553,295.3,554.3,301.3,553.3,306.9z"/>
		<path class="st0" d="M674.8,177.1c-0.2,1.8-0.9,3.4-2.2,4.9c-1.2,1.5-2.6,2.2-4.2,2.1c-0.9-0.1-2.4-0.7-4.6-1.9
			c-2.2-1.2-4.1-1.9-5.6-2c-4.1-0.3-7.4-0.7-9.9-0.9c-1.4-0.2-2.2-0.1-2.4,0.2c-0.2,0.3-0.6,1.5-1.2,3.7c-1,3.2-2.7,8.5-5,16.7
			c-8.7,30.4-15.4,62-22,93c-3.4,15.8-7.9,32.7-7.1,49c-0.7,3-1.1,4.5-1.8,7.4c-2.3,1.6-4,2.3-5,2.2c-6.1-0.7-8.7-6.4-7.8-18.6
			c1.2-12,3.9-23.8,6.4-35.5c3.5-16.6,7.1-33.3,11-49.7c2.7-11.5,5.8-23,8.8-34.4c2.5-9.4,5.1-18.9,7.2-28.4
			c0.5-2.5,0.8-3.6,1.3-5.9c-1.4-0.1-4,0-7.9,0.1c-3.2,0.1-5.8,0-7.7-0.4c-6.1-1.3-8.6-4.9-7.5-9.5c0.5-1.9,1.1-2.8,2.1-3
			c1.9-2,9.3-1.9,22.6-0.9c10.2,0.8,18.4,1.5,24.7,2.2c4.4,0.5,8.2,1.2,11.5,2.3C673,171.4,675.3,173.5,674.8,177.1z"/>
		<path class="st0" d="M699.2,353.5c-3.2,3.4-6.6,5-10,5.1c-2.3,0-5-3.1-4.8-6.6c0.5-10.5,8-26.7,11.1-40.2
			c2.8-12.3,13.2-70.2,3.5-71.3c-9.5-1-18.7,43.9-21.8,57.7c-0.5,2.2-1.2,5.3-2.1,9.3c-0.9,4-1.7,7.1-2.2,9.2
			c-0.8,3.1-1.7,7.9-2.7,13.9c-1.1,6.1-2,10.4-2.8,13.2c-0.7,2.4-2.2,4.6-4.4,6.5c-2.2,1.9-4,2.8-5.4,2.8c-2.7,0-4.4-1.8-5.1-5.6
			c-0.8-3.8-0.5-8.1,0.8-13c13.5-52.3,25.9-106.6,30.7-160.5c0-0.3,0-0.6,0.1-1c0-0.4,0-0.7,0.1-0.9c0.2-2.8,2-3.5,5.7-3.3
			c1.8,0.1,3.8,0.6,6.2,1.7s3.6,2.6,3.6,4.1c0,1.9-0.6,5.1-2,10.5c-1.4,5.4-2.5,10.5-2.9,13.9c-0.5,4.4-1.4,11.8-2.9,23.4
			c2.7-2.5,4.8-3.7,6.4-3.7c4.1-0.1,8.4,1.6,12.7,5.1c5.6,4.5,9.1,12.5,9.8,24c0.7,12.5-1.6,25.1-3.8,37.5
			C712,308.5,706.8,331.3,699.2,353.5z"/>
		<path class="st0" d="M759.4,227c-0.3,3.6-1.2,8.7-2.9,15.6c-1.7,6.9-2.9,12.5-3.5,16.4c-3.5,22.5-7.9,44.6-13.5,66.7
			c-1,3.9-2,10-3.1,17.6c-3.1,4.4-5.7,6.5-7.8,6.6c-7.2,0.3-9.1-5-6.2-17.5c4.2-18.6,7.7-37.4,11-56.1c3.1-17.4,5.9-34.8,8.8-52.3
			c0.1-1,0.2-1.9,0.3-2.9c0.3-3.4,1.9-5.1,4.9-5.3c2.6-0.2,5.3,0.7,7.8,2.3C758.1,220,759.8,222.9,759.4,227z M762.3,190.6
			c0.1,3.2-0.7,6-2.3,8.4c-1.6,2.4-3.6,3.7-5.9,3.8c-2.7,0.2-5.2-1.2-7.5-3.9c-2.2-2.7-3.3-6-3.3-9.6c0-3,0.7-5.3,2.2-7.1
			c1.5-1.8,3.3-2.6,5.6-2.8c2.7-0.2,5.2,0.6,7.5,2.5C761,183.9,762.2,186.7,762.3,190.6z"/>
		<path class="st0" d="M806.3,343.6c-3.2,4.4-6.1,6.5-8.6,6.6c-1.9,0-4.3-1.7-7.4-5.3c0.5-1.4,0.7-2,1.2-3.4
			c1.4-4.2,3.5-10.6,6-19.6c2.5-9,4.1-16,5-20.3c2.4-12,12.1-67.1-1.2-69.6c-1.4-0.3-4.4,3.2-7.4,9.3
			c-10.9,21.7-17.3,45.3-22.8,68.7c-0.9,3.6-1.8,9-2.9,15.9c-1.1,6.8-2.3,11.7-3.4,15c-0.9,2.7-2.3,4.9-4.4,6.6
			c-2.1,1.7-3.9,2.6-5.6,2.6c-6.8,0.3-7.6-6.1-3.4-21.4c5.9-22.4,10.3-44.8,13.8-67.7c0.2-1.7,0.7-4.3,1.4-7.7
			c0.7-3.3,1.1-5.8,1.3-7.5c0.3-2.5,0.5-6.2,0.6-10.9c0.1-4.7,0.1-8,0.3-10.2c0.2-3.1,1.4-6.1,3.6-9c2.1-2.9,4-4.3,5.6-4.4
			c2.4-0.2,4.7,1.8,7,6.4c-0.4,4.6-0.6,7-1.2,11.8c4.9-12.2,9.8-17.9,15.6-18.4c3.8-0.3,7.7,1.5,11.9,5.7c4.1,4.3,7.1,9.4,8.8,15.5
			c5.3,21.5,2.2,44.4-1.4,65.8C815.5,313.5,811.5,328.7,806.3,343.6z"/>
		<path class="st0" d="M893.2,245.7c-1,10.4-2.7,20.7-5,30.8c-2.2,10.2-4.8,20.5-7,30.7c-2.2,9.9-4.8,19.9-7.7,29.6
			c-3.7,12.4-7.6,20.7-10.3,25.9c-5.5,10.7-11.1,16.9-15.5,20.5c-5.5,4.5-11.7,7.2-18.3,8.7c-6.6,1.5-11.9,1.8-16.1,1.5
			c-4.3-0.3-8.4-1.4-12.4-3.5c-5-2.5-6.2-5.4-3-9.4c4.1-5.2,8.2-8.6,12.6-8.5c2.1,0,3,0.9,2.7,2.4c-0.4,2.8-0.6,4.3-0.5,4.8
			c0.1,0.5,1.4,1.1,3.8,1.9c2.4,0.8,4.2,1.2,5.3,1.2c14,0.4,24.4-12.7,29.8-24.6c2.7-5.8,4.7-11.3,6-15.9
			c-7.3,7.2-14.3,10.4-20.8,10.3c-2.7,0-5.2-1.3-7.6-4c-2.4-2.6-3.8-5.8-4.4-9.5c-1.2-11.2,1.6-22.9,3.9-33.7
			c4.7-21.1,9.8-42.4,15.2-63.3c2.6-10.1,6.4-37.7,18.8-39.7c4.1-0.7,9.6,2.9,13.4,10.3c3.5,6.7,6.4,14.8,9.2,22.7
			c0.8,2.2,2.1,4.1,3.8,5.9C891.3,242.9,892.6,244.6,893.2,245.7z M875.2,267c0.4-3.5-0.1-6.3-1.4-8.6c0.1-8.6-2.8-31.4-8.8-30.2
			c-5.6,1.1-8.7,21.7-10.8,31.4c-3,14-6.2,28.1-9,42.1c-1.6,8.1-5.7,31.1,0.3,31.7c6.7,0.6,15.1-15.6,19.3-25.2
			C870.2,295.4,873.6,281.1,875.2,267z"/>
		<path class="st0" d="M955.3,215.8c-0.4,11.7-1.2,23.4-2.5,34.9c-1.4,12.2-3.4,24.6-5.4,36.9c-5.7,31.8-13.8,63.7-31.3,91.3
			c-6.4,10.1-15.7,18.6-27.1,22.3c-9,2.9-16.7,2.4-23,0.7c-4.1-1.1-6.8-3-8.9-6.1c-2.4-3.7-1.7-7.6,2.8-13c1.5-1.8,3.4-3.4,5.5-4.6
			c2.1-1.2,3.9-1.8,5.3-1.6c0.9,0.1,1.6,2.5,1.8,6.7c0.2,4.2,2.1,6.4,6.1,7.3c5.1,1.1,11.1-0.4,17.6-6.1c7.2-6.3,12.1-15,16.3-23.2
			c2.3-4.3,3.8-8.5,5-11.6c-5,4.1-9.6,5.7-13.6,5.1c-7.3-1.1-10.7-6.9-11-18.7c-0.3-14.3,2.3-28.8,4.9-42.8
			c5.1-28.2,7.6-57.1,6.5-86.1c2.9-2.8,5.2-4.2,7-4.3c2-0.1,5.3,2.1,9.7,7c-2.9,28-3.9,56-8.6,83.6c-1.5,8.7-6.9,40-1,40.8
			c5.6,0.7,13.3-15.1,16.7-23.8c4.9-12.3,7.8-26,9.3-39.4c1.4-14.7,2.2-29.1,2.2-43.9c0,0.2-0.1-3.6-0.9-11.1
			c3.9-4.4,6.7-6.5,8.7-6.5C949.5,209.5,952.2,211.5,955.3,215.8z"/>
		<path class="st0" d="M972.2,341c-2.5,8.1-10.5,26.1-21.5,22.8c-1.3-0.4-2.9-3.4-5-8.8c1-5.2,2.3-10.1,3.9-14.8
			c4.7-13.6,9.6-20.4,15.9-18.8c2.3,0.6,4.3,2.5,6,5.7C973.6,331.3,973.7,336.1,972.2,341z M974.5,151.6c0.6,0.7,1,1.5,1.2,2.4
			c0.3,1.2,0.4,2.1,0.4,2.5c3.8,11.8,5.9,24,7.4,36.1c2.1,17,1.7,34.7,0.9,52.1c0,1.3-0.2,3.7-0.7,7.4c-0.4,3.7-0.8,6.6-0.9,8.6
			c-0.5,6.7-0.9,15.9-1.7,27.4c-0.9,2-2.2,4.7-4.2,8.1c-1.1,0.6-2.3,0.7-3.5,0.5c-1.8-0.4-3.3-2-4.4-4.9c-0.2-9.3,0.6-18.9,1.5-28.2
			c1.6-16.5,3.2-33.5,3.3-49.7c0.1-13.4-0.4-27.6-4.6-40.7c-1-3-2.8-7.4-6-12.2c-3.1-4.8-5.7-7.5-7.2-9.1c-0.8-0.9-1.5-1.6-1.9-2.2
			c0.4-1.8,2.2-2.5,5.5-2.7c1.9-0.1,4.4,0,7.2,0.7C970.3,148.4,972.9,149.7,974.5,151.6z"/>
	</g>
</g>
</svg>
